<?xml version="1.0" encoding="utf-8"?>
<!-- Generator: Adobe Illustrator 24.0.1, SVG Export Plug-In . SVG Version: 6.00 Build 0)  -->
<svg version="1.1" id="Layer_1" xmlns="http://www.w3.org/2000/svg" xmlns:xlink="http://www.w3.org/1999/xlink" x="0px" y="0px"
	 viewBox="0 0 210.8 27.5" style="enable-background:new 0 0 210.8 27.5;" xml:space="preserve">
<style type="text/css">
	.st0{fill:#184893;}
	.st1{fill:#FFFFFF;}
	.st2{fill:#F1AE1D;}
	.st3{fill:#21396E;}
	.st4{fill:#D9242A;}
	.st5{fill:#EFA02E;}
	.st6{fill:#010101;}
	.st7{fill:#F2F2F2;}
	.st8{fill:#0A68B3;}
	.st9{fill:#F9A61C;}
	.st10{fill:#EB2227;}
	.st11{fill:#1E5C9A;}
	.st12{fill:#E8A839;}
	.st13{fill-rule:evenodd;clip-rule:evenodd;fill:#FFFFFF;}
</style>
<g>
	<g>
		<path class="st0" d="M2.9,1.9h34.3c1.1,0,2,0.9,2,2v20.6c0,1.1-0.9,2-2,2H2.9c-1.1,0-2-0.9-2-2V3.9C1,2.8,1.8,1.9,2.9,1.9z"/>
		<path class="st1" d="M15.3,19l1.6-9.6h2.6L17.9,19H15.3z M27.3,9.6C26.8,9.4,26,9.2,25,9.2c-2.6,0-4.4,1.3-4.4,3.2
			c0,1.4,1.3,2.1,2.3,2.6c1,0.5,1.4,0.8,1.4,1.2c0,0.6-0.8,0.9-1.6,0.9c-1,0-1.6-0.1-2.5-0.5l-0.3-0.2l-0.4,2.1
			c0.6,0.3,1.7,0.5,2.9,0.5c2.7,0,4.5-1.3,4.5-3.3c0-1.1-0.7-1.9-2.2-2.6c-0.9-0.4-1.5-0.7-1.5-1.2c0-0.4,0.5-0.8,1.5-0.8
			c0.9,0,1.5,0.2,2,0.4l0.2,0.1L27.3,9.6 M34.1,9.4h-2c-0.6,0-1.1,0.2-1.4,0.8L26.8,19h2.7c0,0,0.4-1.2,0.5-1.4c0.3,0,3,0,3.3,0
			c0.1,0.3,0.3,1.4,0.3,1.4h2.4L34.1,9.4L34.1,9.4z M30.9,15.6c0.2-0.6,1-2.7,1-2.7c0,0,0.2-0.6,0.3-0.9l0.2,0.8
			c0,0,0.5,2.3,0.6,2.8H30.9z M13.1,9.4l-2.6,6.5l-0.3-1.3c-0.5-1.5-2-3.2-3.6-4L9,19l2.8,0l4.1-9.6L13.1,9.4"/>
		<path class="st2" d="M8.1,9.4H3.9l0,0.2c3.3,0.8,5.4,2.7,6.3,5l-0.9-4.4C9.2,9.6,8.7,9.4,8.1,9.4"/>
	</g>
	<g>
		<path class="st3" d="M45.9,1.8h34.5c1.1,0,2,0.9,2,2v20.7c0,1.1-0.9,2-2,2H45.9c-1.1,0-2-0.9-2-2V3.8C43.9,2.7,44.8,1.8,45.9,1.8z
			"/>
		<path class="st4" d="M66,14.1c0,4.9-4,8.8-8.8,8.8c-4.9,0-8.8-4-8.8-8.8c0-4.9,4-8.8,8.8-8.8C62,5.3,66,9.3,66,14.1"/>
		<path class="st5" d="M69,5.3c-2.3,0-4.4,0.9-5.9,2.3c-0.3,0.3-0.6,0.6-0.9,0.9H64c0.2,0.3,0.5,0.6,0.7,0.9h-3.1
			c-0.2,0.3-0.4,0.6-0.5,0.9h4.2c0.1,0.3,0.3,0.6,0.4,0.9h-4.9c-0.1,0.3-0.2,0.6-0.3,0.9h5.4c0.1,0.6,0.2,1.2,0.2,1.9
			c0,1-0.2,1.9-0.5,2.8h-4.9c0.1,0.3,0.2,0.6,0.4,0.9h4.2c-0.2,0.3-0.3,0.6-0.5,0.9h-3.1c0.2,0.3,0.4,0.6,0.7,0.9H64
			c-0.3,0.3-0.6,0.6-0.9,0.9c1.6,1.4,3.6,2.3,5.9,2.3c4.9,0,8.8-4,8.8-8.8C77.9,9.3,73.9,5.3,69,5.3"/>
		<path class="st6" d="M76.7,19.1c0-0.2,0.1-0.3,0.3-0.3c0.2,0,0.3,0.1,0.3,0.3c0,0.2-0.1,0.3-0.3,0.3
			C76.8,19.4,76.7,19.2,76.7,19.1z M77,19.3c0.1,0,0.2-0.1,0.2-0.2c0-0.1-0.1-0.2-0.2-0.2l0,0c-0.1,0-0.2,0.1-0.2,0.2l0,0
			C76.8,19.2,76.9,19.3,77,19.3L77,19.3z M76.9,19.2L76.9,19.2l-0.1-0.3H77c0,0,0,0,0.1,0c0,0,0,0,0,0.1c0,0,0,0.1,0,0.1l0,0.1H76.9
			L76.9,19.2L76.9,19.2L76.9,19.2L76.9,19.2L76.9,19.2z M76.9,19L76.9,19C77,19,77,19.1,76.9,19C77,19,77,19,76.9,19
			C77,19,77,19,76.9,19C77,19,77,19,76.9,19L76.9,19L76.9,19L76.9,19z M55.1,15.1c-0.1,0-0.1,0-0.2,0c-0.5,0-0.8,0.2-0.8,0.6
			c0,0.2,0.1,0.4,0.3,0.4C54.8,16,55.1,15.6,55.1,15.1z M55.8,16.7H55l0-0.4c-0.2,0.3-0.6,0.4-1,0.4c-0.5,0-0.9-0.4-0.9-1
			c0-0.9,0.6-1.4,1.7-1.4c0.1,0,0.2,0,0.4,0c0-0.1,0-0.2,0-0.2c0-0.2-0.2-0.3-0.6-0.3c-0.5,0-0.9,0.1-1,0.2c0-0.1,0.1-0.8,0.1-0.8
			c0.5-0.1,0.8-0.2,1.1-0.2c0.8,0,1.3,0.4,1.3,1.1c0,0.2,0,0.4-0.1,0.7C56,15.3,55.8,16.5,55.8,16.7L55.8,16.7z M52.7,16.7h-1
			l0.5-3.4l-1.2,3.4h-0.7l-0.1-3.4l-0.6,3.4h-0.9l0.8-4.5H51l0.1,2.5l0.8-2.5h1.5L52.7,16.7 M70.2,15.1c-0.1,0-0.1,0-0.2,0
			c-0.5,0-0.8,0.2-0.8,0.6c0,0.2,0.1,0.4,0.3,0.4C69.9,16,70.2,15.6,70.2,15.1z M70.9,16.7h-0.8l0-0.4c-0.2,0.3-0.6,0.4-1,0.4
			c-0.5,0-0.9-0.4-0.9-1c0-0.9,0.6-1.4,1.7-1.4c0.1,0,0.2,0,0.4,0c0-0.1,0-0.2,0-0.2c0-0.2-0.2-0.3-0.6-0.3c-0.5,0-0.9,0.1-1,0.2
			c0-0.1,0.1-0.8,0.1-0.8c0.5-0.1,0.8-0.2,1.1-0.2c0.8,0,1.3,0.4,1.3,1.1c0,0.2,0,0.4-0.1,0.7C71.1,15.3,70.9,16.5,70.9,16.7
			L70.9,16.7z M60.1,16.7c-0.3,0.1-0.5,0.1-0.7,0.1c-0.5,0-0.8-0.3-0.8-0.8c0-0.2,0.1-0.6,0.1-1c0.1-0.3,0.4-2.5,0.4-2.5h1L60,13.1
			h0.6L60.5,14h-0.6c-0.1,0.7-0.3,1.6-0.3,1.7c0,0.2,0.1,0.3,0.3,0.3c0.1,0,0.2,0,0.3,0L60.1,16.7 M63,16.6c-0.3,0.1-0.6,0.2-1,0.1
			c-1.1,0-1.6-0.6-1.6-1.6c0-1.2,0.7-2.2,1.7-2.2c0.8,0,1.3,0.5,1.3,1.3c0,0.3,0,0.5-0.1,0.9h-1.9c-0.1,0.5,0.3,0.7,0.8,0.7
			c0.3,0,0.6-0.1,1-0.2L63,16.6z M62.5,14.5c0-0.1,0.1-0.7-0.4-0.7c-0.3,0-0.5,0.2-0.6,0.7H62.5z M56.4,14.2c0,0.5,0.2,0.8,0.7,1
			c0.4,0.2,0.4,0.2,0.4,0.4c0,0.2-0.2,0.3-0.6,0.3c-0.3,0-0.6,0-0.9-0.1c0,0-0.1,0.8-0.1,0.8c0.2,0,0.4,0.1,1,0.1
			c1,0,1.5-0.4,1.5-1.2c0-0.5-0.2-0.8-0.7-1c-0.4-0.2-0.4-0.2-0.4-0.4c0-0.2,0.2-0.3,0.5-0.3c0.2,0,0.4,0,0.7,0.1l0.1-0.8
			C58.4,13,58,13,57.8,13C56.7,13,56.4,13.6,56.4,14.2 M67.7,13.1c0.3,0,0.5,0.1,0.9,0.2l0.2-1C68.5,12.3,68,12,67.6,12
			c-0.6,0-1.2,0.3-1.6,0.8c-0.6-0.2-0.8,0.2-1.1,0.6l-0.2,0.1c0-0.1,0-0.2,0-0.4h-0.9c-0.1,1.1-0.3,2.3-0.5,3.4l0,0.2h1
			c0.2-1,0.2-1.7,0.3-2.2l0.4-0.2c0.1-0.2,0.2-0.3,0.6-0.3c0,0.2-0.1,0.5-0.1,0.7c0,1.2,0.6,1.9,1.7,1.9c0.3,0,0.5,0,0.8-0.1l0.2-1
			c-0.3,0.2-0.6,0.2-0.8,0.2c-0.6,0-0.9-0.4-0.9-1.1C66.4,13.8,66.9,13.1,67.7,13.1"/>
		<path class="st1" d="M53,16.5h-1l0.6-3.4l-1.2,3.4h-0.7L50.6,13l-0.6,3.4h-0.9l0.8-4.5h1.4l0,2.8l0.9-2.8h1.5L53,16.5"/>
		<path class="st6" d="M75.8,12.2l-0.2,1.3c-0.3-0.3-0.5-0.6-0.9-0.6c-0.5,0-0.9,0.4-1.2,0.9c-0.4-0.1-0.8-0.2-0.8-0.2v0
			c0-0.3,0-0.5,0-0.5h-0.9c-0.1,1.1-0.3,2.3-0.5,3.4l0,0.2h1c0.1-0.8,0.2-1.5,0.3-2.1c0.3-0.3,0.5-0.6,0.8-0.5
			c-0.1,0.4-0.2,0.8-0.2,1.2c0,0.9,0.5,1.5,1.2,1.5c0.4,0,0.6-0.1,0.9-0.4l0,0.3H76l0.7-4.5L75.8,12.2L75.8,12.2L75.8,12.2z
			 M74.6,15.9c-0.3,0-0.5-0.2-0.5-0.7c0-0.7,0.3-1.2,0.7-1.2c0.3,0,0.5,0.3,0.5,0.7C75.3,15.4,75,15.9,74.6,15.9L74.6,15.9z"/>
		<path class="st1" d="M55.4,14.8c-0.1,0-0.1,0-0.2,0c-0.5,0-0.8,0.2-0.8,0.6c0,0.2,0.1,0.4,0.3,0.4C55.1,15.8,55.4,15.4,55.4,14.8z
			 M56.1,16.5h-0.8l0-0.4c-0.2,0.3-0.6,0.4-1,0.4c-0.5,0-0.9-0.4-0.9-1c0-0.9,0.6-1.4,1.7-1.4c0.1,0,0.2,0,0.4,0c0-0.1,0-0.2,0-0.2
			c0-0.2-0.2-0.3-0.6-0.3c-0.5,0-0.9,0.1-1,0.2c0-0.1,0.1-0.8,0.1-0.8c0.5-0.1,0.8-0.2,1.1-0.2c0.8,0,1.3,0.4,1.3,1.1
			c0,0.2,0,0.4-0.1,0.7C56.3,15.1,56.1,16.2,56.1,16.5L56.1,16.5z M68.9,12.1l-0.2,1c-0.3-0.2-0.6-0.2-0.9-0.2
			c-0.7,0-1.2,0.7-1.2,1.7c0,0.7,0.3,1.1,0.9,1.1c0.2,0,0.5-0.1,0.8-0.2l-0.2,1c-0.4,0.1-0.6,0.1-0.8,0.1c-1,0-1.7-0.7-1.7-1.9
			c0-1.6,0.9-2.7,2.2-2.7C68.3,11.9,68.8,12,68.9,12.1 M70.5,14.8c-0.1,0-0.1,0-0.2,0c-0.5,0-0.8,0.2-0.8,0.6c0,0.2,0.1,0.4,0.3,0.4
			C70.2,15.8,70.5,15.4,70.5,14.8z M71.2,16.5h-0.8l0-0.4c-0.2,0.3-0.6,0.4-1,0.4c-0.5,0-0.9-0.4-0.9-1c0-0.9,0.6-1.4,1.7-1.4
			c0.1,0,0.2,0,0.4,0c0-0.1,0-0.2,0-0.2c0-0.2-0.2-0.3-0.6-0.3c-0.5,0-0.9,0.1-1,0.2c0-0.1,0.1-0.8,0.1-0.8c0.5-0.1,0.8-0.2,1.1-0.2
			c0.8,0,1.3,0.4,1.3,1.1c0,0.2,0,0.4-0.1,0.7C71.4,15.1,71.2,16.2,71.2,16.5L71.2,16.5z M60.3,16.4c-0.3,0.1-0.5,0.1-0.7,0.1
			c-0.5,0-0.8-0.3-0.8-0.8c0-0.2,0.1-0.6,0.1-1c0.1-0.3,0.4-2.5,0.4-2.5h1l-0.1,0.6h0.5l-0.1,0.9h-0.5c-0.1,0.7-0.3,1.6-0.3,1.7
			c0,0.2,0.1,0.3,0.3,0.3c0.1,0,0.2,0,0.3,0L60.3,16.4 M63.3,16.4c-0.3,0.1-0.6,0.1-1,0.1c-1.1,0-1.6-0.6-1.6-1.6
			c0-1.2,0.7-2.2,1.7-2.2c0.8,0,1.3,0.5,1.3,1.3c0,0.3,0,0.5-0.1,0.9h-1.9c-0.1,0.5,0.3,0.8,0.8,0.8c0.3,0,0.6-0.1,1-0.2L63.3,16.4
			L63.3,16.4z M62.7,14.2c0-0.1,0.1-0.6-0.4-0.6c-0.3,0-0.5,0.2-0.6,0.6H62.7z M56.7,14c0,0.5,0.2,0.8,0.7,1
			c0.4,0.2,0.4,0.2,0.4,0.4c0,0.2-0.2,0.3-0.6,0.3c-0.3,0-0.6,0-0.9-0.1c0,0-0.1,0.8-0.1,0.8c0.2,0,0.4,0.1,1,0.1
			c1,0,1.5-0.4,1.5-1.2c0-0.5-0.2-0.8-0.7-1c-0.4-0.2-0.4-0.2-0.4-0.4c0-0.2,0.2-0.3,0.5-0.3c0.2,0,0.4,0,0.7,0.1l0.1-0.8
			c-0.2,0-0.6-0.1-0.8-0.1C57,12.7,56.7,13.3,56.7,14 M76.3,16.5h-0.9l0-0.3c-0.3,0.3-0.5,0.4-0.9,0.4c-0.7,0-1.2-0.6-1.2-1.5
			c0-1.2,0.7-2.2,1.6-2.2c0.4,0,0.7,0.2,0.9,0.5l0.2-1.3H77L76.3,16.5L76.3,16.5z M74.9,15.6c0.4,0,0.8-0.5,0.8-1.2
			c0-0.5-0.2-0.7-0.5-0.7c-0.4,0-0.7,0.5-0.7,1.2C74.4,15.4,74.5,15.6,74.9,15.6z M72.1,12.8c-0.1,1.1-0.3,2.3-0.5,3.4l0,0.2h1
			c0.3-2.2,0.4-2.7,1-2.6c0.1-0.5,0.2-0.9,0.4-1.1c-0.4-0.1-0.6,0.1-0.9,0.6c0-0.2,0.1-0.4,0.1-0.6L72.1,12.8 M64.2,12.8
			c-0.1,1.1-0.3,2.3-0.5,3.4l0,0.2h1c0.3-2.2,0.4-2.7,1-2.6c0.1-0.5,0.2-0.9,0.4-1.1c-0.4-0.1-0.6,0.1-0.9,0.6
			c0-0.2,0.1-0.4,0.1-0.6L64.2,12.8 M76.7,16.2c0-0.2,0.1-0.3,0.3-0.3c0.2,0,0.3,0.1,0.3,0.3v0c0,0.2-0.1,0.3-0.3,0.3
			S76.7,16.3,76.7,16.2L76.7,16.2z M77,16.4c0.1,0,0.2-0.1,0.2-0.2l0,0c0-0.1-0.1-0.2-0.2-0.2h0c-0.1,0-0.2,0.1-0.2,0.2
			C76.8,16.3,76.9,16.4,77,16.4L77,16.4z M76.9,16.3L76.9,16.3l-0.1-0.3H77c0,0,0,0,0.1,0c0,0,0,0,0,0.1c0,0,0,0.1,0,0.1l0,0.1
			L76.9,16.3L76.9,16.3L76.9,16.3L76.9,16.3L76.9,16.3L76.9,16.3z M76.9,16.2L76.9,16.2C77,16.2,77,16.2,76.9,16.2
			C77,16.2,77,16.1,76.9,16.2C77,16.1,77,16.1,76.9,16.2C77,16.1,77,16.1,76.9,16.2L76.9,16.2L76.9,16.2L76.9,16.2L76.9,16.2z"/>
	</g>
	<g>
		<polygon class="st7" points="161.6,4.5 157.8,4.5 157.8,5.5 159.1,5.5 159.1,9 160.3,9 160.3,5.5 161.6,5.5 		"/>
		<polygon class="st7" points="151.2,7.1 153.4,7.1 153.4,6.1 151.2,6.1 151.2,5.5 153.6,5.5 153.6,4.5 150.1,4.5 150.1,9 153.8,9 
			153.8,7.9 151.2,7.9 		"/>
		<path class="st7" d="M146.8,4.5h-1.9V9h1.9c1.4,0,2.3-0.8,2.3-2.3C149.1,5.3,148.3,4.5,146.8,4.5z M146.7,7.9H146V5.5h0.6
			c0.8,0,1.3,0.3,1.3,1.3C148,7.6,147.5,7.9,146.7,7.9z"/>
		<polygon class="st7" points="155.8,4.5 154.7,4.5 154.7,9 157.9,9 157.9,7.9 155.8,7.9 		"/>
		<path class="st7" d="M129.3,3.1v22c0,0.6,0.5,1.1,1.2,1.1h35.6c0.6,0,1-0.4,1.1-0.8l-37.5-23C129.5,2.6,129.3,2.9,129.3,3.1z"/>
		<path class="st7" d="M163.1,4.5L161.5,9h1.1l0.3-0.8h1.6l0.3,0.8h1.1l-1.6-4.5H163.1z M163.2,7.3l0.5-1.5l0.5,1.5H163.2z"/>
		<polygon class="st8" points="163.2,7.3 164.2,7.3 163.7,5.8 		"/>
		<path class="st8" d="M146.7,5.5H146v2.4h0.6c0.8,0,1.3-0.3,1.3-1.1C148,5.8,147.5,5.5,146.7,5.5z"/>
		<path class="st8" d="M166.1,2.1h-1.3h-34.3c-0.3,0-0.6,0.1-0.8,0.3l37.5,23c0-0.1,0-0.1,0-0.2v-1.7V4.8V3.1
			C167.2,2.6,166.7,2.1,166.1,2.1z M146.8,9h-1.9V4.5h1.9c1.4,0,2.3,0.8,2.3,2.3C149.1,8.2,148.3,9,146.8,9z M153.8,9h-3.7V4.5h3.5
			v1h-2.4v0.6h2.2v1h-2.2v0.8h2.6V9L153.8,9z M157.9,9h-3.2V4.5h1.1v3.4h2.1V9L157.9,9z M160.3,9h-1.3V5.5h-1.3v-1h3.9v1h-1.3
			L160.3,9L160.3,9z M164.8,9l-0.3-0.8h-1.6L162.6,9h-1.1l1.6-4.5h1.3L166,9H164.8z"/>
		<polygon class="st9" points="129.5,14.2 148.8,14.2 148.8,26 		"/>
		<polygon class="st10" points="129.3,20.2 139,20.2 139,26.2 		"/>
	</g>
	<g>
		<path class="st11" d="M88.9,1.8h34.7c1.1,0,2,0.9,2,2v20.8c0,1.1-0.9,2-2,2H88.9c-1.1,0-2-0.9-2-2V3.7C86.9,2.6,87.8,1.8,88.9,1.8
			z"/>
		<g>
			<path class="st11" d="M89.6,25.3c-0.8,0-1.4-0.6-1.4-1.4V4.4c0-0.8,0.6-1.4,1.4-1.4h33.3c0.8,0,1.4,0.6,1.4,1.4v19.5
				c0,0.8-0.6,1.4-1.4,1.4L89.6,25.3L89.6,25.3z"/>
			<path class="st1" d="M122.9,3.4c0.5,0,1,0.4,1,0.9v19.5c0,0.5-0.4,0.9-1,0.9H89.6c-0.5,0-1-0.4-1-0.9V4.4c0-0.5,0.4-0.9,1-0.9
				L122.9,3.4 M122.9,2.5H89.6c-1.1,0-1.9,0.8-1.9,1.9v19.5c0,1,0.9,1.9,1.9,1.9h33.3c1.1,0,1.9-0.8,1.9-1.9V4.4
				C124.8,3.3,123.9,2.5,122.9,2.5L122.9,2.5z"/>
		</g>
		<g>
			<path class="st12" d="M98,16.1c3.8-1.6,9.2-3.1,16.3-1.6l0.1-1.8c-7.5-0.8-12.9,1.6-16.4,3.3V16.1z"/>
			<path class="st1" d="M91.1,17.5h3.6v1.1h-2.2l0,1h2.2v1h-2.2l0,1h2.2v1.1h-3.6L91.1,17.5L91.1,17.5z M95.6,17h1.3l0,5.6h-1.3
				L95.6,17z M101.4,22.2c-0.4,0.4-1.1,0.6-1.7,0.6c-1.4,0-2-1-2-2c0-1.1,0.9-2.1,2-2.1c1.4,0,1.9,1,1.9,2.3H99
				c0,0.3,0.2,0.8,0.9,0.8c0.5,0,0.7-0.1,1.1-0.4L101.4,22.2L101.4,22.2z M100.4,20.3c0-0.4-0.2-0.7-0.6-0.7c-0.4,0-0.7,0.4-0.8,0.7
				H100.4z M105.6,22.4c-0.4,0.2-1,0.4-1.4,0.4c-1.2,0-2.1-0.7-2.1-1.9c0-1.3,0.9-2.1,2.2-2.1c0.5,0,1,0.1,1.3,0.3l-0.4,0.9
				c-0.2-0.1-0.4-0.1-0.6-0.1c-0.7,0-1.1,0.4-1.1,1c0,0.5,0.4,1,1,1c0.3,0,0.5-0.1,0.7-0.2L105.6,22.4L105.6,22.4z M106.1,18.9h0.6
				l0-1.3h1.3l0,1.3h1.1l0,0.9h-1.1c0,0.5,0,1.1,0,1.4c0,0.3,0.1,0.5,0.4,0.5c0.2,0,0.3-0.1,0.5-0.2l0.3,0.9
				c-0.4,0.2-0.9,0.4-1.3,0.4c-1.1,0-1.1-0.7-1.1-1.5c0-0.5,0-0.9,0-1.4h-0.6L106.1,18.9L106.1,18.9z M109.7,18.9h1.3v0.5h0
				c0.2-0.3,0.5-0.6,1-0.6c0.1,0,0.3,0,0.4,0l-0.2,1.3c-0.1,0-0.3-0.1-0.5-0.1c-0.4,0-0.8,0.4-0.8,0.4l0,2.2h-1.3L109.7,18.9
				L109.7,18.9z M114.8,18.7c1.4,0,2.1,0.9,2.1,2c0,1.1-0.7,2-2.1,2s-2.1-0.9-2.1-2S113.4,18.7,114.8,18.7L114.8,18.7z M114.8,21.8
				c0.6,0,0.8-0.5,0.8-1c0-0.5-0.2-1-0.8-1s-0.8,0.5-0.8,1C113.9,21.3,114.1,21.8,114.8,21.8z M117.6,18.9h1.3v0.4
				c0.3-0.3,0.8-0.5,1.2-0.5c0.8,0,1.2,0.4,1.2,1.5c0,0.8,0,1.6,0,2.4H120c0-0.7,0-1.5,0-2.3c0-0.3-0.1-0.5-0.5-0.5
				c-0.2,0-0.5,0.2-0.7,0.3l0,2.5h-1.3L117.6,18.9L117.6,18.9z M101.9,11.1l1.7-5.5h1.5l-1.7,5.5H101.9z M101.2,5.6l-1.3,2.3
				c-0.3,0.6-0.5,0.9-0.6,1.3h0c0-0.5,0-1.1,0-1.4L99,5.6h-2.5l0,0.1c0.6,0,1,0.3,1.1,1l0.5,4.3h1.5l3.1-5.5
				C102.8,5.6,101.2,5.6,101.2,5.6z M112.7,11.1l0-0.8l-1.8,0l-0.4,0.8h-1.6l2.9-5.5h2l0.5,5.5L112.7,11.1L112.7,11.1L112.7,11.1z
				 M112.5,7.8c0-0.4,0-1,0-1.3h0c-0.1,0.3-0.5,1.1-0.6,1.5l-0.6,1.2h1.3L112.5,7.8L112.5,7.8z M106.6,11.2c-1,0-1.7-0.3-2.2-0.6
				l0.7-1.1c0.4,0.2,0.8,0.5,1.6,0.5c0.3,0,0.5-0.1,0.6-0.3c0.2-0.4,0-0.5-0.6-0.9l-0.3-0.2c-0.9-0.6-1.2-1.1-0.8-2.1
				c0.3-0.6,0.9-1.1,2.1-1.1c0.8,0,1.5,0.3,1.9,0.7l-0.8,0.9c-0.4-0.3-0.8-0.5-1.1-0.5c-0.3,0-0.5,0.1-0.6,0.3
				c-0.2,0.3,0.1,0.5,0.5,0.8l0.3,0.2c1,0.7,1.3,1.3,1,2C108.4,11,107.5,11.2,106.6,11.2L106.6,11.2z"/>
		</g>
	</g>
	<g>
		<path class="st0" d="M173.9,1.5h34.3c1.1,0,2,0.9,2,2V24c0,1.1-0.9,2-2,2h-34.3c-1.1,0-2-0.9-2-2V3.5C172,2.4,172.8,1.5,173.9,1.5
			z"/>
	</g>
	<path id="Cartebleue-Logo" class="st13" d="M203.1,8.6c0-1.4-1.1-2.5-2.5-2.5v0h-9v4.9h9v0C202,11.1,203.1,10,203.1,8.6z
		 M203.1,13.9c0-1.4-1.1-2.5-2.5-2.5v0h-9v4.9h9v0C202,16.3,203.1,15.2,203.1,13.9z M184.9,11.4v-0.3h6.6v-0.4c0-2.5-2-4.5-4.5-4.5
		h-4.2c-2.5,0-4.5,2-4.5,4.5v1.2c0,2.5,2,4.5,4.5,4.5h4.2c2.5,0,4.5-2,4.5-4.5v-0.5H184.9L184.9,11.4z M180.7,20.5
		c-0.3,0.6-0.6,0.8-1.2,0.8c-0.7,0-1.3-0.6-1.3-1.4c0-0.8,0.6-1.4,1.3-1.4c0.5,0,1,0.3,1.2,0.9h-0.4c-0.2-0.3-0.5-0.6-0.8-0.6
		c-0.6,0-1,0.5-1,1.1c0,0.6,0.4,1.1,1,1.1c0.3,0,0.6-0.2,0.8-0.5H180.7z M181.1,19.5c0-0.6,0.5-0.9,1.2-0.9c0.5,0,1.1,0.1,1.1,0.8
		v1.4c0,0.1,0.1,0.2,0.2,0.2c0,0,0.1,0,0.1,0v0.3c-0.1,0-0.1,0-0.2,0c-0.4,0-0.4-0.2-0.4-0.5h0c-0.2,0.3-0.5,0.5-1.1,0.5
		c-0.5,0-1-0.2-1-0.8c0-0.7,0.8-0.8,1.6-0.8c0.3,0,0.5-0.1,0.5-0.4c0-0.4-0.3-0.5-0.8-0.5c-0.4,0-0.8,0.2-0.8,0.6L181.1,19.5
		L181.1,19.5z M183,19.9L183,19.9c-0.1,0.1-0.2,0.1-0.3,0.1c-0.6,0.1-1.3,0.1-1.3,0.6c0,0.3,0.3,0.5,0.6,0.5c0.5,0,1-0.3,1-0.8
		L183,19.9L183,19.9z M183.9,18.6h0.3V19c0.1-0.2,0.4-0.4,0.8-0.4v0.3c-0.2,0-0.3,0.1-0.5,0.2c-0.2,0.2-0.3,0.3-0.3,0.6v1.5h-0.4
		V18.6L183.9,18.6z M191.5,18.2h0.4v0.9c0.2-0.3,0.6-0.5,1-0.5c0.8,0,1.4,0.6,1.4,1.4c0,0.8-0.6,1.4-1.4,1.4c-0.4,0-0.8-0.2-1.1-0.5
		v0.5h-0.3V18.2z M191.8,20c0,0.6,0.5,1.1,1.1,1.1c0.6,0,1.1-0.5,1.1-1.1c0-0.6-0.5-1.1-1-1.1C192.3,18.9,191.8,19.4,191.8,20z
		 M194.4,18.2h0.3v3.1h-0.3V18.2z M195.3,20.1c0,0.5,0.5,1,1,1c0.4,0,0.8-0.3,0.9-0.6h0.4c-0.2,0.5-0.7,0.9-1.3,0.9
		c-0.8,0-1.4-0.6-1.4-1.4c0-0.8,0.6-1.4,1.4-1.4c0.5,0,1,0.3,1.2,0.7c0.1,0.2,0.2,0.4,0.2,0.8H195.3L195.3,20.1z M197.4,19.8
		c-0.1-0.5-0.5-0.9-1-0.9c-0.5,0-0.9,0.4-1,0.9H197.4z M200.7,20.1c0,0.5,0.5,1,1,1c0.4,0,0.8-0.3,0.9-0.6h0.4
		c-0.2,0.5-0.7,0.9-1.3,0.9c-0.8,0-1.4-0.6-1.4-1.4c0-0.8,0.6-1.4,1.4-1.4c0.5,0,1,0.3,1.2,0.7c0.1,0.2,0.2,0.4,0.2,0.8H200.7
		L200.7,20.1z M202.8,19.8c-0.1-0.5-0.5-0.9-1-0.9c-0.5,0-0.9,0.4-1,0.9H202.8z M186.8,20.1c0,0.5,0.5,1,1,1c0.4,0,0.8-0.3,0.9-0.6
		h0.4c-0.2,0.5-0.7,0.9-1.3,0.9c-0.8,0-1.4-0.6-1.4-1.4c0-0.8,0.6-1.4,1.4-1.4c0.5,0,1,0.3,1.2,0.7c0.1,0.2,0.2,0.4,0.2,0.8H186.8
		L186.8,20.1z M188.9,19.8c-0.1-0.5-0.5-0.9-1-0.9c-0.5,0-0.9,0.4-1,0.9H188.9z M185.7,18.6h0.9v0.3h-0.9v1.7c0,0.2,0,0.4,0.3,0.4
		c0.1,0,0.5,0,0.6,0v0.3c-0.1,0-0.5,0-0.6,0c-0.5,0-0.6-0.2-0.6-0.7v-1.7h-0.1v-0.3h0.1v-0.4h0.4V18.6L185.7,18.6z M199.9,18.7v1.5
		c0,0.6-0.3,0.9-0.8,0.9c-0.5,0-0.8-0.4-0.8-0.9v-1.5h-0.3v1.5c0,0.8,0.4,1.3,1.1,1.3c0,0,0,0,0,0c0,0,0,0,0,0
		c0.7,0,1.1-0.5,1.1-1.3v-1.5H199.9z"/>
</g>
<rect x="3.2" y="-15.2" style="fill:none;" width="204.8" height="11.2"/>
<text transform="matrix(1 0 0 1 8.1633 -5.2876)" class="st1" style="font-family:'MyriadPro-It'; font-size:14px;">We accept these payment methods</text>
</svg>
